:SAMPLES-PER-SECOND 30
:FULLY-SPECIFIED
:DEGREES
431
root  -3.17441 41.0104 0.155461 177.004 -70.1451 -175.418
RightUpLeg  0.521746 0.336215 0.558842
RightLeg  -4.92919 -5.29643 1.68211
RightFoot  3.74171 -0.324318 2.64189
RightToes  -3.10678e-008 1.75238e-005 3.56266e-009
Spine  8.34997 -6.37874 -9.17667
Spine1  -10.2849 -7.82506 12.9274
HEad  -5.00026 -3.85601 2.29765
LeftShoulder1  0.763246 0.104259 -15.6436
LeftArm  -20.6228 -5.43574 -49.1418
LeftForeArm  117.472 -79.9307 -107.379
LeftHand  -0.516257 -5.48997 5.82121
RightShoulder  0.589147 -0.980049 16.845
RightArm  -11.5482 -1.53671 44.0542
RightForeArm  56.7792 78.016 57.4269
RightHand  -0.474587 8.39462 -4.36958
LeftUpLeg  4.88878 2.01825 2.5432
LeftLeg  -5.82188 36.2562 -3.47589
LeftFoot  0.240511 0.30624 -3.0285
LeftToes  4.7643e-008 1.47522e-008 1.32869e-009
432
root  -3.25639 41.0076 0.114108 177.087 -70.4715 -175.57
RightUpLeg  0.724904 0.395001 0.605192
RightLeg  -4.90321 -5.6955 1.53661
RightFoot  3.62961 -0.284494 2.35304
RightToes  -3.10678e-008 1.75238e-005 3.56266e-009
Spine  8.2492 -5.47742 -8.23016
Spine1  -10.7411 -6.77279 12.2518
HEad  -4.1008 -1.77286 2.0599
LeftShoulder1  0.793049 0.00402778 -15.8669
LeftArm  -22.2582 -3.35475 -48.7899
LeftForeArm  119.223 -79.8103 -109.303
LeftHand  -0.5425 -5.24201 6.23019
RightShoulder  0.58382 -0.938295 16.1924
RightArm  -12.0535 0.437365 44.119
RightForeArm  56.0067 77.8896 56.358
RightHand  -0.418523 8.29155 -3.92259
LeftUpLeg  5.11246 1.97449 2.49416
LeftLeg  -5.93437 36.005 -3.50582
LeftFoot  0.207747 0.316364 -3.16808
LeftToes  4.7643e-008 1.47522e-008 1.32869e-009
433
root  -3.30864 41.0049 0.100067 177.397 -70.4174 -175.757
RightUpLeg  0.436604 0.438508 0.566025
RightLeg  -4.46399 -5.5476 1.40874
RightFoot  3.50236 -0.256593 2.15315
RightToes  -3.10678e-008 1.75238e-005 3.56266e-009
Spine  8.3907 -4.79803 -7.006
Spine1  -11.6148 -5.87606 11.2089
HEad  -3.43117 0.279964 1.82448
LeftShoulder1  0.821829 -0.107079 -15.954
LeftArm  -24.1924 -0.000651274 -48.0461
LeftForeArm  123.201 -79.4793 -113.762
LeftHand  -0.539915 -5.02283 6.31897
RightShoulder  0.587748 -0.86439 15.6472
RightArm  -12.8692 3.46493 44.4717
RightForeArm  54.4458 77.6862 55.0225
RightHand  -0.301695 8.36699 -2.91686
LeftUpLeg  5.10179 1.87342 2.38055
LeftLeg  -6.05595 36.2001 -3.54103
LeftFoot  0.232092 0.319866 -3.21795
LeftToes  4.7643e-008 1.47522e-008 1.32869e-009
434
root  -3.39092 41.0064 0.091748 177.563 -70.0719 -175.79
RightUpLeg  0.309149 0.502732 0.58425
RightLeg  -4.30516 -5.19512 1.28994
RightFoot  3.43556 -0.259374 2.20135
RightToes  -3.10678e-008 1.75238e-005 3.56266e-009
Spine  7.99098 -4.41723 -5.45641
Spine1  -11.4258 -5.32047 9.51319
HEad  -2.73502 2.82605 2.54947
LeftShoulder1  0.603337 0.765072 -15.1891
LeftArm  -25.5259 3.61196 -48.2318
LeftForeArm  126.389 -79.2402 -116.715
LeftHand  -0.570927 -5.4425 6.42929
RightShoulder  0.622396 -0.695656 15.5167
RightArm  -13.9516 7.67263 44.6942
RightForeArm  52.9579 77.4417 53.3342
RightHand  -0.257024 8.04566 -2.58913
LeftUpLeg  5.3302 1.80985 2.31619
LeftLeg  -6.59994 36.6228 -3.8614
LeftFoot  0.344196 0.317361 -3.1809
LeftToes  4.7643e-008 1.47522e-008 1.32869e-009
435
root  -3.4824 41.0101 0.0843577 177.701 -69.81 -175.75
RightUpLeg  0.294333 0.536645 0.594321
RightLeg  -4.40991 -4.92232 1.24919
RightFoot  3.45278 -0.266805 2.2276
RightToes  -3.10678e-008 1.75238e-005 3.56266e-009
Spine  8.247 -4.03656 -3.69916
Spine1  -12.4705 -4.66831 7.67444
HEad  -2.28319 4.04594 2.88382
LeftShoulder1  0.541575 1.01777 -14.9109
LeftArm  -26.1482 7.92089 -47.5572
LeftForeArm  127.339 -79.0892 -118.076
LeftHand  -0.556992 -5.17907 6.42154
RightShoulder  0.597887 -0.733429 14.8923
RightArm  -14.9445 10.6808 45.0057
RightForeArm  53.8436 77.6197 54.6526
RightHand  -0.3818 8.43652 -3.57831
LeftUpLeg  5.54421 1.75478 2.27066
LeftLeg  -7.23009 36.9072 -4.23458
LeftFoot  0.512064 0.300855 -2.92576
LeftToes  4.7643e-008 1.47522e-008 1.32869e-009
436
root  -3.54845 41.0129 0.083417 177.9 -69.6441 -175.668
RightUpLeg  0.145626 0.528821 0.568968
RightLeg  -4.54469 -4.75454 1.30029
RightFoot  3.50892 -0.273129 2.26183
RightToes  -3.10678e-008 1.75238e-005 3.56266e-009
Spine  8.53467 -3.82683 -1.98633
Spine1  -13.429 -4.20498 5.60606
HEad  -2.37773 5.25993 3.24277
LeftShoulder1  0.499061 1.21155 -14.8806
LeftArm  -27.0996 12.0029 -47.128
LeftForeArm  128.268 -79.0808 -118.45
LeftHand  -0.525281 -5.00341 6.16951
RightShoulder  0.576592 -0.767684 14.2793
RightArm  -16.608 12.884 44.9414
RightForeArm  54.763 77.8157 56.3008
RightHand  -0.415284 8.68855 -3.7926
LeftUpLeg  5.48319 1.66959 2.22917
LeftLeg  -7.58981 37.1598 -4.42414
LeftFoot  0.630504 0.294326 -2.81894
LeftToes  4.7643e-008 1.47522e-008 1.32869e-009
437
root  -3.6098 41.017 0.0747124 177.998 -69.6224 -175.513
RightUpLeg  0.0802043 0.5793 0.597159
RightLeg  -4.7302 -4.74447 1.33155
RightFoot  3.54453 -0.271559 2.26368
RightToes  -3.10678e-008 1.75238e-005 3.56266e-009
Spine  8.45898 -3.60735 -0.442789
Spine1  -13.5777 -3.80587 3.54541
HEad  -2.26907 6.38008 4.15879
LeftShoulder1  0.338768 1.93015 -14.6133
LeftArm  -27.8915 14.6599 -47.5036
LeftForeArm  128.183 -79.0728 -118.472
LeftHand  -0.491711 -5.18689 5.70275
RightShoulder  0.436274 -1.35841 13.5726
RightArm  -18.7391 14.788 45.1935
RightForeArm  54.9252 77.9609 58.0228
RightHand  -0.295107 8.15674 -2.90312
LeftUpLeg  5.39938 1.62735 2.24819
LeftLeg  -7.81462 37.2066 -4.5283
LeftFoot  0.733865 0.298481 -2.86462
LeftToes  4.7643e-008 1.47522e-008 1.32869e-009
438
root  -3.64963 41.0183 0.0366955 177.912 -70.0149 -175.312
RightUpLeg  0.213657 0.556723 0.649791
RightLeg  -5.00764 -5.21584 1.47817
RightFoot  3.56536 -0.254625 2.13187
RightToes  -3.10678e-008 1.75238e-005 3.56266e-009
Spine  8.52106 -3.52112 0.458389
Spine1  -13.9823 -3.59391 2.15615
HEad  -2.48525 6.37136 4.86773
LeftShoulder1  0.270333 2.24963 -14.6149
LeftArm  -28.5147 16.3392 -47.5334
LeftForeArm  126.63 -79.1984 -117.088
LeftHand  -0.493904 -4.8863 5.87679
RightShoulder  0.431893 -1.36229 13.2877
RightArm  -20.9189 14.932 44.6569
RightForeArm  54.7874 77.9094 57.4609
RightHand  -0.328871 8.37012 -3.14877
LeftUpLeg  5.27446 1.6718 2.36344
LeftLeg  -7.68308 36.7774 -4.40663
LeftFoot  0.748282 0.305266 -2.92561
LeftToes  4.7643e-008 1.47522e-008 1.32869e-009
439
root  -3.68486 41.0223 -0.0320834 177.931 -70.7888 -175.317
RightUpLeg  0.456576 0.370429 0.588973
RightLeg  -5.2168 -5.81867 1.70657
RightFoot  3.47483 -0.243658 2.05589
RightToes  -3.10678e-008 1.75238e-005 3.56266e-009
Spine  8.25153 -3.20304 0.168415
Spine1  -13.6579 -3.30303 2.21525
HEad  -2.8867 5.55356 4.68969
LeftShoulder1  0.342771 1.96692 -15.4786
LeftArm  -28.9711 16.4444 -46.9494
LeftForeArm  125.905 -79.3223 -115.955
LeftHand  -0.505299 -4.83138 6.03451
RightShoulder  0.266331 -2.12768 12.5958
RightArm  -22.6034 14.6198 44.8754
RightForeArm  52.8457 77.6045 55.0872
RightHand  -0.346299 8.41554 -3.28515
LeftUpLeg  5.2999 1.61913 2.41725
LeftLeg  -7.76987 36.0503 -4.33142
LeftFoot  0.915393 0.322378 -3.0548
LeftToes  4.7643e-008 1.47522e-008 1.32869e-009
440
root  -3.71756 41.0242 -0.113148 177.747 -71.92 -175.127
RightUpLeg  0.698431 0.196369 0.586554
RightLeg  -5.323 -6.75589 1.95712
RightFoot  3.28879 -0.224855 1.92607
RightToes  -3.10678e-008 1.75238e-005 3.56266e-009
Spine  7.3772 -3.29526 -0.273419
Spine1  -12.3838 -3.45934 2.44828
HEad  -3.30908 5.69284 4.4056
LeftShoulder1  0.344296 2.00325 -16.1588
LeftArm  -29.0269 15.223 -46.4767
LeftForeArm  124.428 -79.4231 -114.66
LeftHand  -0.50866 -4.73508 6.125
RightShoulder  0.289094 -2.04232 13.0289
RightArm  -23.5318 14.2545 43.5689
RightForeArm  50.7805 77.3038 53.2187
RightHand  -0.360968 8.47369 -3.3871
LeftUpLeg  5.24916 1.58605 2.53816
LeftLeg  -7.71747 34.9815 -4.13682
LeftFoot  0.996933 0.322982 -3.04434
LeftToes  4.7643e-008 1.47522e-008 1.32869e-009
441
root  -3.72585 41.0242 -0.185897 177.183 -73.1273 -174.573
RightUpLeg  1.01618 0.146555 0.712964
RightLeg  -5.60417 -7.92721 2.23056
RightFoot  3.24412 -0.19213 1.67404
RightToes  -3.10678e-008 1.75238e-005 3.56266e-009
Spine  7.16458 -3.41149 -0.794748
Spine1  -12.0488 -3.63896 3.03213
HEad  -3.09354 5.86435 3.97631
LeftShoulder1  0.34715 1.98526 -16.0551
LeftArm  -28.8288 14.2514 -46.991
LeftForeArm  123.556 -79.561 -113.261
LeftHand  -0.558964 -4.67968 6.73436
RightShoulder  0.346016 -1.76756 13.0947
RightArm  -24.2652 13.978 43.139
RightForeArm  49.4445 77.0522 51.6203
RightHand  -0.22437 8.19685 -2.29364
LeftUpLeg  5.003 1.61319 2.77011
LeftLeg  -7.23802 33.7603 -3.66101
LeftFoot  1.02773 0.340784 -3.20262
LeftToes  4.7643e-008 1.47522e-008 1.32869e-009
442
root  -3.72964 41.0234 -0.26492 176.599 -74.3481 -174.196
RightUpLeg  1.55352 0.0652222 0.804674
RightLeg  -5.95137 -9.10212 2.47021
RightFoot  3.18963 -0.171219 1.51344
RightToes  -3.10678e-008 1.75238e-005 3.56266e-009
Spine  7.72315 -3.61742 -1.29308
Spine1  -12.5971 -3.86668 3.44253
HEad  -2.49182 6.66646 4.01296
LeftShoulder1  0.323312 2.05931 -15.5777
LeftArm  -28.4422 13.7416 -47.8842
LeftForeArm  123.342 -79.6383 -112.551
LeftHand  -0.543828 -4.89891 6.43394
RightShoulder  0.481269 -1.17345 13.8939
RightArm  -23.7574 12.9614 42.0885
RightForeArm  50.3253 77.2758 53.185
RightHand  -0.331363 8.11216 -3.21882
LeftUpLeg  4.99476 1.70293 2.98803
LeftLeg  -6.88412 32.4457 -3.3446
LeftFoot  1.07819 0.356105 -3.33329
LeftToes  4.7643e-008 1.47522e-008 1.32869e-009
443
root  -3.73293 41.0224 -0.324442 176.296 -75.0698 -173.978
RightUpLeg  1.77867 0.167755 0.947595
RightLeg  -6.05914 -9.99353 2.4938
RightFoot  3.08685 -0.154371 1.38579
RightToes  -3.10678e-008 1.75238e-005 3.56266e-009
Spine  7.44226 -3.53953 -1.01405
Spine1  -12.1472 -3.75191 2.77652
HEad  -2.35587 6.41629 3.97391
LeftShoulder1  0.429577 1.57011 -15.3484
LeftArm  -28.1483 13.1575 -48.728
LeftForeArm  122.616 -79.7076 -111.685
LeftHand  -0.503321 -5.05958 5.89433
RightShoulder  0.513825 -1.06406 14.3377
RightArm  -23.9971 13.6745 42.5263
RightForeArm  50.0323 77.1449 52.1282
RightHand  -0.262324 8.28196 -2.59915
LeftUpLeg  4.92048 1.76257 3.12447
LeftLeg  -6.59739 31.6628 -3.12452
LeftFoot  1.06057 0.365373 -3.4222
LeftToes  4.7643e-008 1.47522e-008 1.32869e-009
444
root  -3.72806 41.0217 -0.368336 176.566 -75.4321 -174.31
RightUpLeg  1.76765 0.160378 0.930965
RightLeg  -5.84205 -10.3854 2.4379
RightFoot  2.86983 -0.146656 1.33317
RightToes  -3.10678e-008 1.75238e-005 3.56266e-009
Spine  7.24427 -3.36547 -0.979218
Spine1  -11.8836 -3.57534 2.63942
HEad  -2.43116 7.05068 3.61166
LeftShoulder1  0.495782 1.31372 -15.8414
LeftArm  -26.7547 12.9247 -48.8374
LeftForeArm  122.238 -79.8033 -110.702
LeftHand  -0.548087 -5.02531 6.40776
RightShoulder  0.599226 -0.628534 14.0431
RightArm  -23.1254 14.7687 43.2627
RightForeArm  49.7475 77.0182 51.189
RightHand  -0.350344 8.33297 -3.33754
LeftUpLeg  4.94566 1.77546 3.12003
LeftLeg  -6.60826 31.2842 -3.15425
LeftFoot  1.12184 0.367219 -3.42604
LeftToes  4.7643e-008 1.47522e-008 1.32869e-009
